<svg width="144" height="144" viewBox="0 0 144 144" fill="none" xmlns="http://www.w3.org/2000/svg">
<path fill-rule="evenodd" clip-rule="evenodd" d="M64.8066 15.4182C65.2752 17.7268 63.783 19.9781 61.4748 20.4467C40.8695 24.629 24.6289 40.8695 20.4463 61.4744C19.9776 63.7832 17.7262 65.2748 15.4177 64.8062C13.109 64.3376 11.6174 62.0864 12.0861 59.7776C16.9502 35.8149 35.815 16.9503 59.7778 12.0866C62.0862 11.618 64.338 13.1096 64.8066 15.4182Z" fill="#FF4220"/>
<path fill-rule="evenodd" clip-rule="evenodd" d="M15.4176 79.194C17.7262 78.7254 19.9776 80.217 20.4462 82.5258C24.6288 103.131 40.8695 119.371 61.4745 123.554C63.7833 124.022 65.2749 126.274 64.8063 128.582C64.3377 130.891 62.0865 132.383 59.7778 131.914C35.815 127.05 16.9502 108.185 12.0861 84.2226C11.6175 81.9144 13.109 79.6632 15.4176 79.194Z" fill="#FF4220"/>
<path fill-rule="evenodd" clip-rule="evenodd" d="M79.1935 15.4177C79.6621 13.1091 81.9139 11.6175 84.2221 12.0861C108.185 16.9499 127.05 35.8144 131.914 59.7771C132.383 62.0856 130.891 64.3368 128.582 64.806C126.274 65.2746 124.022 63.783 123.554 61.4742C119.371 40.869 103.13 24.6285 82.5253 20.4462C80.2171 19.9776 78.7249 17.7263 79.1935 15.4177Z" fill="#FF4220"/>
<path fill-rule="evenodd" clip-rule="evenodd" d="M128.582 79.194C130.891 79.6632 132.383 81.9144 131.914 84.2226C127.05 108.185 108.185 127.05 84.2221 131.914C81.9139 132.382 79.6621 130.891 79.1935 128.582C78.7249 126.274 80.2171 124.022 82.5253 123.554C103.13 119.371 119.371 103.131 123.554 82.5258C124.022 80.217 126.274 78.7254 128.582 79.194Z" fill="#FF4220"/>
<path fill-rule="evenodd" clip-rule="evenodd" d="M71.9986 117.497C97.126 117.497 117.495 97.1276 117.495 72.0002C117.495 46.8731 97.126 26.5034 71.9986 26.5034C46.8716 26.5034 26.502 46.8731 26.502 72.0002C26.502 97.1276 46.8716 117.497 71.9986 117.497ZM53.6435 87.2324C55.0463 85.34 57.7176 84.9434 59.6101 86.3462C63.1474 88.9682 67.4122 90.4832 71.9986 90.4832C76.585 90.4832 80.8498 88.9682 84.3874 86.3462C86.2798 84.9434 88.951 85.34 90.3538 87.2324C91.7566 89.1254 91.36 91.7966 89.4676 93.1994C84.5416 96.8504 78.5134 99.014 71.9986 99.014C65.4838 99.014 59.4559 96.8504 54.5302 93.1994C52.6377 91.7966 52.2408 89.1254 53.6435 87.2324ZM91.9036 62.4032C91.9036 66.5258 89.6758 69.8678 86.9272 69.8678C84.1792 69.8678 81.9514 66.5258 81.9514 62.4032C81.9514 58.2809 84.1792 54.939 86.9272 54.939C89.6758 54.939 91.9036 58.2809 91.9036 62.4032ZM57.0702 69.8678C59.8185 69.8678 62.0464 66.5258 62.0464 62.4032C62.0464 58.2809 59.8185 54.939 57.0702 54.939C54.3219 54.939 52.0939 58.2809 52.0939 62.4032C52.0939 66.5258 54.3219 69.8678 57.0702 69.8678Z" fill="#FF4220"/>
<path d="M82.5006 78.5L96.5006 81.5C97.5006 84.8333 99.5005 91.7 99.5005 92.5C99.5005 93.3 97.5006 99.5 96.5006 102.5C87.6672 103.833 68.5005 106.1 62.5005 104.5C55.0005 102.5 49.5006 97.5 46.0006 94.5C43.2006 92.1 42.8339 86.5 43.0006 84L57.0006 76.5L82.5006 78.5Z" fill="#FF4220"/>
<path d="M57 95C61.6512 89.7176 74.1628 82.3223 87 95" stroke="white" stroke-width="8" stroke-linecap="round"/>
</svg>
